# xmcd CD database file
#
# Track frame offsets:
#	150
#	11117
#	36815
#	49547
#	67007
#	84525
#	111587
#	128685
#	140115
#	162155
#	185192
#	205725
#	224135
#
# Disc length: 3211 seconds
#
# Revision: 0
# Processed by: cddbd v1.5.2PL0 Copyright (c) Steve Scherf et al.
# Submitted via: CDex 1.70
#
DISCID=cb0c890d
DTITLE=Various Artist - Windham Hill 25 Years Of Piano Windows
DYEAR=2001
DGENRE=New Age
TTITLE0=Dubuque
TTITLE1=Wedding Rain
TTITLE2=If You Believe
TTITLE3=Children's Song
TTITLE4=As For Us
TTITLE5=In Flight
TTITLE6=Inside Out
TTITLE7=Rocket To The Moon
TTITLE8=To The Well
TTITLE9=Past Voices
TTITLE10=A Morning With Roses
TTITLE11=Loreta And Desiree's Bouquet-Part 1
TTITLE12=Montana Half-Light
EXTD=YEAR: 2001
EXTT0=
EXTT1=
EXTT2=
EXTT3=
EXTT4=
EXTT5=
EXTT6=
EXTT7=
EXTT8=
EXTT9=
EXTT10=
EXTT11=
EXTT12=
PLAYORDER=
